<svg id="svg" version="1.1" xmlns="http://www.w3.org/2000/svg" xmlns:xlink="http://www.w3.org/1999/xlink" width="400" height="400" viewBox="0, 0, 400,400"><g id="svgg"><path id="path0" d="M312.845 89.032 C 305.831 90.918,300.146 96.892,298.128 104.496 C 297.555 106.655,297.431 110.524,297.228 132.600 C 296.916 166.549,297.305 165.701,284.624 160.030 C 261.943 149.886,235.823 151.869,218.200 165.074 C 179.645 193.964,175.518 259.332,210.059 294.010 C 231.713 315.751,266.377 319.696,288.832 302.976 C 295.034 298.358,296.052 298.428,301.552 303.846 C 315.883 317.964,335.694 311.968,339.374 292.400 C 339.976 289.202,339.606 108.357,338.992 105.400 C 336.499 93.394,324.516 85.893,312.845 89.032 M269.000 191.809 C 303.720 197.804,306.723 262.057,272.834 273.842 C 239.855 285.311,216.108 238.906,237.752 205.287 C 244.607 194.639,256.267 189.610,269.000 191.809 " stroke="none" fill="#ee6e26" fill-rule="evenodd"></path><path id="path1" d="M143.597 91.589 C 136.925 92.451,130.989 96.470,128.565 101.765 C 126.114 107.118,126.265 102.255,126.000 184.400 C 125.773 255.088,125.717 259.561,125.033 262.200 C 121.022 277.680,109.721 280.539,88.380 271.474 C 71.231 264.189,61.413 266.634,58.217 278.984 C 50.611 308.375,112.968 326.160,145.696 303.935 C 157.532 295.897,164.864 281.786,166.862 263.200 C 167.590 256.428,167.618 112.657,166.892 108.473 C 164.855 96.730,155.618 90.036,143.597 91.589 " stroke="none" fill="#1a75b9" fill-rule="evenodd"></path><path id="path2" d="M0.000 200.000 L 0.000 400.000 200.000 400.000 L 400.000 400.000 400.000 200.000 L 400.000 0.000 200.000 0.000 L 0.000 0.000 0.000 200.000 M153.065 86.599 C 162.315 88.367,168.688 94.331,171.667 104.007 L 172.588 107.000 172.720 182.600 C 172.814 236.797,172.723 259.616,172.397 263.200 C 170.017 289.387,157.899 306.899,136.593 314.940 C 111.230 324.511,71.896 317.615,58.768 301.296 C 46.979 286.641,51.932 266.054,68.272 261.798 C 74.177 260.260,78.205 261.172,93.000 267.400 C 108.996 274.133,117.353 271.487,119.894 258.886 C 120.438 256.188,120.548 246.436,120.771 181.400 L 121.026 107.000 121.887 103.938 C 125.646 90.569,137.971 83.715,153.065 86.599 M325.231 87.449 C 332.292 89.644,337.714 94.980,340.292 102.269 L 341.400 105.400 341.400 199.800 C 341.400 290.303,341.370 294.299,340.665 296.600 C 335.239 314.303,314.611 319.387,300.963 306.385 C 295.702 301.374,294.940 301.321,289.060 305.562 C 274.630 315.970,253.586 318.198,234.024 311.389 C 187.570 295.219,169.837 232.780,197.870 184.084 C 214.682 154.878,251.689 143.451,284.000 157.487 C 295.221 162.362,294.720 163.539,294.927 131.800 C 295.079 108.355,295.104 107.721,295.992 104.400 C 299.775 90.261,311.819 83.278,325.231 87.449 M256.400 193.995 C 241.732 197.895,231.429 214.400,231.429 234.000 C 231.429 265.603,258.675 283.618,281.310 266.981 C 291.628 259.398,297.457 236.527,293.285 220.000 C 288.491 201.008,272.479 189.719,256.400 193.995 " stroke="none" fill="#fbfbfb" fill-rule="evenodd"></path><path id="path3" d="M141.230 86.435 C 130.965 88.449,124.630 94.181,121.887 103.938 L 121.026 107.000 120.771 181.400 C 120.548 246.436,120.438 256.188,119.894 258.886 C 117.353 271.487,108.996 274.133,93.000 267.400 C 78.205 261.172,74.177 260.260,68.272 261.798 C 51.932 266.054,46.979 286.641,58.768 301.296 C 71.896 317.615,111.230 324.511,136.593 314.940 C 157.899 306.899,170.017 289.387,172.397 263.200 C 172.723 259.616,172.814 236.797,172.720 182.600 L 172.588 107.000 171.667 104.007 C 167.584 90.743,155.329 83.669,141.230 86.435 M315.269 86.434 C 305.552 87.678,298.776 93.993,295.992 104.400 C 295.104 107.721,295.079 108.355,294.927 131.800 C 294.720 163.539,295.221 162.362,284.000 157.487 C 265.495 149.448,242.907 149.531,226.600 157.697 C 212.221 164.897,202.173 175.083,194.847 189.884 C 171.027 238.009,189.714 295.966,234.024 311.389 C 243.769 314.781,245.115 315.001,256.000 314.987 C 270.493 314.967,279.634 312.361,289.060 305.562 C 294.940 301.321,295.702 301.374,300.963 306.385 C 314.611 319.387,335.239 314.303,340.665 296.600 C 341.370 294.299,341.400 290.303,341.400 199.800 L 341.400 105.400 340.292 102.269 C 336.521 91.609,326.144 85.042,315.269 86.434 M323.597 88.994 C 331.443 91.082,337.319 97.344,338.992 105.400 C 339.606 108.357,339.976 289.202,339.374 292.400 C 335.694 311.968,315.883 317.964,301.552 303.846 C 296.052 298.428,295.034 298.358,288.832 302.976 C 266.377 319.696,231.713 315.751,210.059 294.010 C 175.518 259.332,179.645 193.964,218.200 165.074 C 235.823 151.869,261.943 149.886,284.624 160.030 C 292.536 163.568,294.668 163.547,296.247 159.915 C 296.940 158.321,297.009 156.397,297.228 132.600 C 297.431 110.524,297.555 106.655,298.128 104.496 C 301.210 92.883,312.466 86.032,323.597 88.994 M153.648 92.426 C 160.704 94.466,165.462 100.232,166.892 108.473 C 167.618 112.657,167.590 256.428,166.862 263.200 C 162.775 301.222,135.490 319.575,93.800 312.346 C 66.448 307.604,50.811 290.013,60.117 274.455 C 65.268 265.842,73.163 265.010,88.380 271.474 C 109.721 280.539,121.022 277.680,125.033 262.200 C 125.717 259.561,125.773 255.088,126.000 184.400 C 126.265 102.255,126.114 107.118,128.565 101.765 C 132.352 93.493,143.275 89.426,153.648 92.426 M257.905 191.604 C 222.568 197.727,219.282 262.276,253.722 273.791 C 273.756 280.489,291.903 266.612,296.008 241.454 C 300.847 211.795,282.197 187.395,257.905 191.604 M271.808 194.534 C 299.978 203.693,303.098 255.943,276.315 270.005 C 254.670 281.370,231.429 262.727,231.429 234.000 C 231.429 206.691,250.843 187.717,271.808 194.534 " stroke="none" fill="#a8d1e1" fill-rule="evenodd"></path></g></svg>